#define grid_updated_big_outline_width 12
#define grid_updated_big_outline_height 12
static unsigned char grid_updated_big_outline_bits[] = {
   0x9f, 0x0f, 0x91, 0x08, 0x91, 0x08, 0x91, 0x08, 0x9f, 0x0f, 0x00, 0x00,
   0x00, 0x00, 0x9f, 0x0f, 0x91, 0x08, 0x91, 0x08, 0x91, 0x08, 0x9f, 0x0f };
